<svg width="1170" height="126" viewBox="0 0 1170 126" fill="none" xmlns="http://www.w3.org/2000/svg">
<path d="M92.5999 46.1066C92.5999 46.1066 102.311 30.2409 124.311 30.2409H269.089L249.655 79.3845C249.655 79.3845 232.255 96.284 214.355 96.284H72.6444L92.5999 46.1066ZM0 124.432H230.722C279.833 123.875 306.944 81.9431 306.944 81.9431L338.667 1.56982C338.667 1.56982 111.011 1.56982 108.967 1.56982C59.8553 1.56982 32.2334 44.0591 32.2334 44.0591L19.4335 75.8007C19.4335 75.8007 0 123.92 0 124.432Z" fill="#F3F2EF"/>
<path d="M1151.18 1.30762H1073.92L989.002 39.1908L938.869 1.30762H842.18L921.469 64.7914L793.069 124.693H870.313L953.191 87.8226L1003.32 124.693H1112.29L1022.77 58.1386L1151.18 1.30762Z" fill="#F3F2EF"/>
<path fill-rule="evenodd" clip-rule="evenodd" d="M419.5 0.0669531H393.411C384.711 19.5148 371.922 46.6505 371.922 46.6505L338.667 126H396.989L433.312 33.856L568.878 126H629.756L678.878 3.13744C678.878 3.13744 651.756 3.13744 617.989 3.13744L606.745 30.7855L606.189 31.7862L580.611 96.2944L449.134 0.556503H449.689C449.689 0.556503 417.978 0 419.511 0L419.5 0.0669531Z" fill="#F3F2EF"/>
<path fill-rule="evenodd" clip-rule="evenodd" d="M804.184 1.28564V1.84215L752.005 124.716H691.639L740.75 1.33028L804.184 1.28564Z" fill="#F3F2EF"/>
</svg>
